<svg height='100px' width='100px'  fill="#ffffff" xmlns="http://www.w3.org/2000/svg" xmlns:xlink="http://www.w3.org/1999/xlink" version="1.1" x="0px" y="0px" viewBox="0 0 100 100" enable-background="new 0 0 100 100" xml:space="preserve"><path d="M72,57.5L59.9,46.5c-0.6-0.6-1.6-0.5-2.1,0.1l-1.1,1.2l-1.1-3.4c3.6-2.9,5.9-7.3,5.9-12.3c0-0.9-0.1-1.9-0.2-2.8  c0-0.1,0-0.1-0.1-0.2c-0.2-1.4-0.8-5.7-3.1-9.7c-2.9-5.1-7.2-7.7-12.4-7.7c-5.2,0-9.5,2.6-12.4,7.6c-2.6,4.4-3.1,9.2-3.2,10.1  c0,0,0,0.1,0,0.1c-0.1,0.9-0.2,1.8-0.2,2.6c0,5,2.3,9.4,5.9,12.3l-1.1,3.5c-0.2,0-0.5,0-0.7,0.1c-1,0.2-1.9,0.8-2.5,1.7  c-0.6,0.9-0.8,2-0.6,3c0.1,0.3,0.2,0.7,0.4,1l-0.2-0.1c-0.8-0.3-1.6,0.2-1.9,1l-0.9,2.7c-0.3-0.2-0.7-0.4-1-0.6  c-0.7-0.5-1.6-0.3-2.1,0.4c-0.5,0.7-0.3,1.6,0.4,2.1c0.5,0.4,1.1,0.7,1.7,1L24,70.5c-0.1,0.2-0.1,0.5,0,0.7l1.2,6.2l0,0  c0,0.1-0.1,0.3-0.1,0.5c0,5.8,9.1,10.4,20.7,10.4c11.6,0,20.7-4.6,20.7-10.4c0-0.2,0-0.3-0.1-0.5l-0.7-2.1c3.1-0.7,5.7-1.8,5.9-1.8  c0.4-0.2,0.7-0.5,0.9-0.9C72.7,71.5,76.1,61.1,72,57.5z M60.6,73.1c-1.4,0-2-0.3-2.2-0.5l-11-9.9l1.6-1.7l13.4,12  C61.8,73,61.2,73.1,60.6,73.1z M65.9,72.1L51,58.7l1.3-1.5l15.9,14.3C67.6,71.7,66.8,72,65.9,72.1C65.9,72.2,65.9,72.1,65.9,72.1z   M54.3,55l1.3-1.5l15,13.5c-0.1,0.8-0.3,1.5-0.5,2.3L54.3,55z M59,49.8l11,9.9c0.7,0.6,1,2,1,3.6l-13.4-12L59,49.8z M45.7,14.7  c9.5,0,12,10.8,12.5,14.1c-2.5,1.3-6.2,2.2-10.1,2.5c-0.8,0.1-1.4,0.7-1.4,1.5v2.7c-0.6,0-1.4,0-2,0l0-2.7c0-0.8-0.6-1.4-1.4-1.5  c-3.9-0.3-7.6-1.2-10.1-2.5C33.7,25.4,36.2,14.7,45.7,14.7z M32.9,32.1c0-0.1,0-0.1,0-0.2c2.5,1.1,5.5,1.9,8.9,2.2l0,2.8  c0,0.8,0.6,1.4,1.3,1.5c0.8,0.1,2.2,0.1,2.7,0.1s1.9,0,2.7-0.1c0.8-0.1,1.3-0.7,1.3-1.5v-2.8c3.4-0.3,6.4-1.1,8.9-2.2  c0,0.1,0,0.1,0,0.2c0,7-5.8,12.8-12.9,12.8S32.9,39.2,32.9,32.1z M34,51.4c0.1-0.2,0.4-0.4,0.6-0.4c0.1,0,0.1,0,0.2,0  c0.5,0,0.9,0.3,1,0.8c0.1,0.3,0,0.5-0.1,0.8s-0.4,0.4-0.6,0.4c-0.5,0.1-1.1-0.2-1.2-0.8C33.8,51.9,33.8,51.6,34,51.4z M38.1,54.1  c0.6-0.9,0.8-2,0.6-3c-0.2-0.8-0.6-1.6-1.2-2.1l0.9-2.9c2.2,1.1,4.7,1.8,7.3,1.8c2.6,0,5.1-0.7,7.3-1.8l1.4,4.3l-3.3,3.7  c0,0,0,0,0,0c0,0,0,0,0,0l-6.6,7.4c-2.6-0.1-5.2-0.4-7.7-1l1-3c0.1-0.4,0.1-0.8-0.1-1.1c-0.2-0.4-0.5-0.6-0.9-0.7l-0.2-0.1  C37.2,55.2,37.8,54.7,38.1,54.1z M31.6,57l2.8,0.9l-0.6,1.7c-1-0.3-1.9-0.6-2.8-1L31.6,57z M30.1,61.5c0.9,0.4,1.8,0.7,2.8,1l-3,9.3  l-2.3,2.5L27,71L30.1,61.5z M63.4,78.1c-0.3,3.5-7.4,7.2-17.6,7.2c-10.1,0-17.2-3.7-17.6-7.1l4.2-4.6c0.1-0.2,0.3-0.3,0.3-0.5  l3.2-9.7c2.9,0.7,6,1.1,9.1,1.1l11.5,10.4c1,0.9,2.3,1.3,4.2,1.3c0.6,0,1.3-0.1,2-0.1L63.4,78.1z"></path></svg>